<svg xmlns="http://www.w3.org/2000/svg" viewBox="0 0 232.32 231.38"><defs><style>.cls-1{fill:#fff;}.cls-2{fill:none;stroke:#ff8523;stroke-linecap:round;stroke-miterlimit:10;stroke-width:11px;}.cls-3{fill:#ff8523;}.cls-4{fill:#ffc49c;}</style></defs><title>Risorsa 1</title><g id="Livello_2" data-name="Livello 2"><g id="Livello_1-2" data-name="Livello 1"><polygon class="cls-1" points="95.82 178.38 102.32 143.38 95.82 143.38 89.32 143.38 95.82 178.38"/><polygon class="cls-1" points="95.82 11.39 89.32 46.39 95.82 46.39 102.32 46.39 95.82 11.39"/><polygon class="cls-1" points="12.33 94.89 47.33 101.39 47.33 94.89 47.33 88.39 12.33 94.89"/><polygon class="cls-1" points="32.01 41.6 54.38 69.28 58.61 64.34 62.83 59.4 32.01 41.6"/><polygon class="cls-1" points="31.91 148.06 62.77 130.31 58.55 125.36 54.34 120.42 31.91 148.06"/><path class="cls-2" d="M191.59,5.5A131,131,0,0,1,5.5,189.77"/><polygon class="cls-1" points="179.32 94.89 144.32 88.39 144.32 94.89 144.32 101.39 179.32 94.89"/><polygon class="cls-1" points="159.64 148.17 137.26 120.49 133.04 125.43 128.82 130.37 159.64 148.17"/><polygon class="cls-1" points="159.74 41.71 128.88 59.46 133.1 64.41 137.31 69.36 159.74 41.71"/><path class="cls-3" d="M95.82,46.88a48,48,0,1,1-48,48,48.06,48.06,0,0,1,48-48m0-3a51,51,0,1,0,51,51,51,51,0,0,0-51-51Z"/><polygon class="cls-3" points="142 5.35 82.38 87.95 95.8 94.88 109.22 101.81 142 5.35"/><polygon class="cls-4" points="49.65 184.32 82.42 87.86 95.85 94.79 109.27 101.71 49.65 184.32"/><circle class="cls-1" cx="95.8" cy="94.88" r="16.49"/></g></g></svg>