<?xml version="1.0" encoding="utf-8"?>
<!-- Generator: Adobe Illustrator 23.0.0, SVG Export Plug-In . SVG Version: 6.00 Build 0)  -->
<svg version="1.1" id="Livello_1" xmlns="http://www.w3.org/2000/svg" xmlns:xlink="http://www.w3.org/1999/xlink" x="0px" y="0px"
	 viewBox="0 0 820 481" style="enable-background:new 0 0 820 481;" xml:space="preserve">
<style type="text/css">
	.st0{fill:#FF8523;}
</style>
<path class="st0" d="M401.8,295.3C401.7,295.6,401.5,295.8,401.8,295.3L401.8,295.3z M514.4,256.5c-9.1,0-18.1,2.1-26.2,6
	c-2.7-5.3-5.4-9.9-5.9-13.4c-0.5-4.1-1.1-6.5-0.5-11.3c0.6-4.8,3.5-11.6,3.4-12.1c0-0.5-0.6-2.9-6.5-3c-5.8,0-10.8,1.1-11.4,2.6
	c-1,2.8-1.8,5.6-2.4,8.5c-1,5.2-11.7,23.9-17.7,33.6c-2-3.8-3.7-7.1-4-9.8c-0.5-4.1-1.1-6.5-0.5-11.3c0.6-4.8,3.5-11.6,3.4-12.1
	c0-0.5-0.6-2.9-6.5-3c-5.8,0-10.8,1.1-11.4,2.6c-0.6,1.5-1.2,5.1-2.4,8.5c-1.2,3.4-15.3,34.5-19,42.6c-1.9,4.1-3.5,7.4-4.7,9.6
	c-0.2,0.4-0.3,0.6-0.4,0.8c0.1-0.2,0.2-0.4,0.2-0.4c-1,1.9-1.6,3-1.6,3v0c-0.8,1.4-1.6,2.7-2,2.7c-0.3,0-0.9-3.7,0.1-8.9
	c2.1-10.8,7.1-27.6,7.1-28.2c0-0.3,0.9-3.2-3.3-4.8c-4.1-1.5-5.6,1-6,1c-0.4,0-0.6,0.9-0.6,0.9s4.6-18.9-8.8-18.9
	c-8.3,0-19.9,9-25.6,17.2c-3.6,1.9-11.3,6.1-19.4,10.5c-3.1,1.7-6.3,3.4-9.4,5.1c-0.2-0.2-0.4-0.4-0.6-0.7
	c-16.2-17-46.1-29.1-44.8-52c0.5-8.3,3.4-30.2,57.4-56.8c44.3-21.8,79.7-15.8,85.8-2.5c8.8,19-18.9,54.3-64.9,59.3
	c-17.5,1.9-26.8-4.8-29.1-7.3c-2.4-2.6-2.8-2.8-3.7-2.3c-1.5,0.8-0.5,3.1,0,4.5c1.4,3.5,7,9.8,16.6,12.9c8.5,2.7,29,4.2,53.9-5.3
	c27.9-10.6,49.7-40.2,43.3-65c-6.5-25.2-48.8-33.4-88.7-19.4c-23.8,8.3-49.6,21.5-68.1,38.5c-22,20.3-25.5,38.1-24.1,45.5
	c5.1,26.3,41.8,43.4,56.5,56.1c-0.7,0.4-1.4,0.8-2,1.1c-7.4,3.6-35.3,18.1-42.3,33.3c-7.9,17.3,1.3,29.7,7.4,31.4
	c18.9,5.2,38.2-4.1,48.6-19.5c10.4-15.3,9.1-35.3,4.3-44.4c0-0.1-0.1-0.2-0.2-0.4c1.9-1.1,3.8-2.2,5.8-3.3c3.7-2.2,7.4-4.2,10.6-5.9
	c-1.8,4.8-3.1,10.6-3.8,19c-0.8,9.8,3.3,22.5,8.6,27.5c2.4,2.2,5.2,2.2,7,2.2c6.2,0,9-5.1,12.2-11.2c3.8-7.4,7.2-16,7.2-16
	s-4.2,23.3,7.4,23.3c4.2,0,8.5-5.4,10.4-8.2v0c0,0,0.1-0.2,0.3-0.5c0.5-0.7,0.7-1.1,0.7-1.1v-0.1c1.7-2.9,5.5-9.5,11.1-20.5
	c7.3-14.2,14.3-31.9,14.3-31.9c0.7,3.9,1.6,7.7,2.8,11.5c1.3,4.2,3.9,8.9,6.1,13.4c-1.7,2.3-2.8,3.7-2.8,3.7c0,0,0,0.1,0,0.1
	c-1.4,1.8-2.9,3.7-4.5,5.6c-5.8,6.8-12.7,14.5-13.6,16.8c-1.1,2.6-0.8,4.6,1.3,6.1c1.5,1.2,4.2,1.3,7.1,1.1
	c5.2-0.4,8.9-1.6,10.6-2.4c3.3-1.2,6.3-2.7,9.1-4.7c5.7-4.1,9.1-10,8.8-17.8c-0.2-4.3-1.6-8.6-3.3-12.6c0.5-0.7,1-1.5,1.5-2.2
	c8.9-12.9,15.9-27,15.9-27c0.7,3.9,1.6,7.7,2.8,11.5c1.1,3.6,3.2,7.6,5.1,11.5c-8.4,6.7-13.6,14.5-15.4,19.7
	c-3.3,9.5-0.7,13.8,4.2,14.8c2.2,0.4,5.4-0.6,7.7-1.6c3.5-1.1,6.8-2.8,9.8-5c5.7-4.1,11.1-9.9,10.8-17.7c-0.1-3.5-1.1-7-2.4-10.4
	c7.1-2.9,16.3-4.6,28.1-3.2c25.2,2.9,30.1,18.4,29.1,24.9c-0.9,6.5-6.2,10.1-8,11.2c-1.8,1.1-2.3,1.5-2.2,2.3c0.2,1.2,1,1.1,2.5,0.8
	c2.1-0.4,13.2-5.3,13.7-17.3C555.4,273.1,540.6,256.4,514.4,256.5L514.4,256.5z M320.4,321.1c-8.3,9-20,12.4-25,9.5
	c-5.4-3.1-3.3-16.3,7-25.8c6.2-5.8,14.3-11.2,19.6-14.5c1.2-0.7,3-1.8,5.2-3.1c0.4-0.2,0.5-0.3,0.5-0.3c0.4-0.3,0.9-0.5,1.3-0.8
	C332.8,299.7,329.2,311.6,320.4,321.1L320.4,321.1z M381.1,280.3c-2.9,7-9,24.9-12.7,23.9c-3.2-0.8-5.1-14.4-0.6-27.8
	c2.3-6.7,7.1-14.8,9.9-17.9c4.6-5,9.6-6.6,10.8-4.6C390,256.5,382.9,275.9,381.1,280.3z M431.3,303.9c-1.2,0.6-2.4,1-2.9,0.7
	c-0.4-0.2,0.5-1.1,0.5-1.1s6.3-6.6,8.8-9.7c1.4-1.8,3.1-3.9,4.9-6.2c0,0.2,0,0.4,0,0.7C442.6,296.4,434.8,301.8,431.3,303.9
	L431.3,303.9z M470,295.2c-0.9-0.6-0.8-2.7,2.3-9.2c1.2-2.5,3.9-6.8,8.6-10.9c0.5,1.6,0.8,3.2,0.9,4.8
	C481.7,289.9,474.4,293.7,470,295.2L470,295.2z"/>
</svg>
