<?xml version="1.0" encoding="utf-8"?>
<!-- Generator: Adobe Illustrator 23.0.0, SVG Export Plug-In . SVG Version: 6.00 Build 0)  -->
<svg version="1.1" id="Livello_1" xmlns="http://www.w3.org/2000/svg" xmlns:xlink="http://www.w3.org/1999/xlink" x="0px" y="0px"
	 viewBox="0 0 820 481" style="enable-background:new 0 0 820 481;" xml:space="preserve">
<style type="text/css">
	.st0{fill:#FF8523;}
</style>
<path class="st0" d="M494.1,133.4H325.9c-12.7,0-22.9,10.3-22.9,22.9v168.3c0,12.7,10.3,22.9,22.9,22.9h168.3
	c12.7,0,22.9-10.3,22.9-22.9V156.4C517.1,143.7,506.8,133.4,494.1,133.4z M419.5,300.4c0,20.8-12.2,30.4-30.1,30.4
	c-16.1,0-25.4-8.3-30.2-18.4l16.4-9.9c3.2,5.6,6,10.3,13,10.3c6.6,0,10.8-2.6,10.8-12.7v-68.4h20.1V300.4z M467.1,330.8
	c-18.7,0-30.8-8.9-36.7-20.6l16.4-9.5c4.3,7,9.9,12.2,19.8,12.2c8.3,0,13.7-4.2,13.7-9.9c0-6.9-5.4-9.3-14.7-13.4l-5-2.2
	c-14.5-6.2-24.1-14-24.1-30.4c0-15.1,11.5-26.6,29.4-26.6c12.8,0,22,4.4,28.6,16.1l-15.7,10c-3.4-6.2-7.2-8.6-13-8.6
	c-5.9,0-9.6,3.7-9.6,8.6c0,6,3.7,8.5,12.4,12.2l5,2.2c17.1,7.3,26.7,14.8,26.7,31.6C500.4,320.9,486.2,330.8,467.1,330.8z"/>
</svg>
