<?xml version="1.0" encoding="utf-8"?>
<!-- Generator: Adobe Illustrator 23.0.0, SVG Export Plug-In . SVG Version: 6.00 Build 0)  -->
<svg version="1.1" id="Livello_1" xmlns="http://www.w3.org/2000/svg" xmlns:xlink="http://www.w3.org/1999/xlink" x="0px" y="0px"
	 viewBox="0 0 820 481" style="enable-background:new 0 0 820 481;" xml:space="preserve">
<style type="text/css">
	.st0{fill:#FF8523;}
</style>
<path class="st0" d="M513.1,230.9l-93.5-93.5c-2.6-2.6-6.1-4-9.8-4s-7.2,1.5-9.8,4l-19.4,19.4l24.6,24.6c12.9-4.4,25.2,8,20.7,20.9
	l23.7,23.7c16.4-5.6,29.3,14.8,17,27.1c-12.7,12.7-33.6-1.4-26.8-17.9l-22.2-22.1v58.3c12.1,6,10.6,20,4.3,26.3
	c-3.1,3.1-7.3,4.8-11.6,4.8s-8.5-1.7-11.6-4.8c-8.4-8.4-5.3-22.4,5.4-26.8v-58.8c-9.9-4.1-11.8-14.7-8.9-21.5l-24.3-24.3l-64.1,64.1
	c-2.6,2.6-4,6.1-4,9.8c0,3.7,1.5,7.2,4,9.8l93.5,93.5c2.6,2.6,6.1,4,9.8,4c3.7,0,7.2-1.5,9.8-4l93.1-93.1c2.6-2.6,4-6.1,4-9.8
	C517.1,237,515.6,233.5,513.1,230.9L513.1,230.9z"/>
</svg>
