<svg id="Livello_1" data-name="Livello 1" xmlns="http://www.w3.org/2000/svg" viewBox="0 0 200.74 200.74"><defs><style>.cls-1{fill:#ff8523;}.cls-2{fill:#a0a0a0;}.cls-3{fill:#282828;}.cls-4{fill:#424242;}.cls-5,.cls-6{fill:none;}.cls-6{stroke:#282828;stroke-linecap:round;stroke-miterlimit:10;}.cls-7{fill:#fff;}.cls-8{fill:#00e92c;}.cls-9{fill:#03e7d3;}.cls-10{fill:#0065c2;}.cls-11{fill:#ff67ab;}.cls-12{fill:#e1d222;}.cls-13{fill:#ffc49c;}.cls-14{fill:#bc4d02;}</style></defs><title>Illustration</title><circle class="cls-1" cx="100.37" cy="100.37" r="100.37"/><rect class="cls-2" x="60.7" y="77.58" width="80.31" height="53.33"/><rect class="cls-3" x="66.84" y="85.3" width="69.62" height="45.58"/><polygon class="cls-4" points="59.73 130.95 35.82 154.87 166.46 154.87 142.48 130.88 59.73 130.95"/><path class="cls-3" d="M35.82,154.87H166.46a0,0,0,0,1,0,0v0a2.9,2.9,0,0,1-2.9,2.9H38.72a2.9,2.9,0,0,1-2.9-2.9v0A0,0,0,0,1,35.82,154.87Z"/><path class="cls-2" d="M947.5,264.53l-8.57,20.6h20.36c0-.49.69-.45.69-.45h17c1.18,0,.87.45.87.45h20.74l-8-20.6Z" transform="translate(-866.55 -130.26)"/><path class="cls-5" d="M927.79,260.58h79.77V208.8a2.69,2.69,0,0,0,0-.4h-79.7a1.81,1.81,0,0,0,0,.4Z" transform="translate(-866.55 -130.26)"/><path class="cls-4" d="M1009,208.4a3.58,3.58,0,0,0-3.56-3.18H929.91a3.58,3.58,0,0,0-3.56,3.18c0,.13,0,.27,0,.4V262H1009V208.8C1009,208.67,1009,208.53,1009,208.4Zm-1.44,52.18H927.79V208.8a1.81,1.81,0,0,1,0-.4h79.7a2.69,2.69,0,0,1,0,.4Z" transform="translate(-866.55 -130.26)"/><line class="cls-6" x1="71.83" y1="142.87" x2="133.28" y2="142.87"/><line class="cls-6" x1="71.83" y1="140.28" x2="133.28" y2="140.28"/><line class="cls-6" x1="72.38" y1="138.21" x2="133.84" y2="138.21"/><line class="cls-6" x1="72.38" y1="135.99" x2="133.84" y2="135.99"/><line class="cls-6" x1="72.38" y1="134.27" x2="133.84" y2="134.27"/><line class="cls-6" x1="90.5" y1="138.21" x2="90.41" y2="140.28"/><line class="cls-6" x1="85.49" y1="138.4" x2="85.35" y2="140.28"/><line class="cls-6" x1="80.2" y1="140.28" x2="79.78" y2="142.87"/><line class="cls-6" x1="95.3" y1="138.21" x2="95.3" y2="140.28"/><line class="cls-6" x1="100" y1="138.21" x2="100" y2="140.11"/><line class="cls-6" x1="104.73" y1="138.21" x2="104.73" y2="140.11"/><line class="cls-6" x1="109.61" y1="138.21" x2="109.61" y2="140.11"/><line class="cls-6" x1="114.41" y1="138.21" x2="114.64" y2="140.11"/><line class="cls-6" x1="115.01" y1="140.28" x2="115.21" y2="142.87"/><line class="cls-6" x1="119.79" y1="140.28" x2="120.15" y2="142.87"/><line class="cls-6" x1="124.82" y1="140.28" x2="125.33" y2="142.87"/><line class="cls-6" x1="119.25" y1="138.21" x2="119.58" y2="140.11"/><line class="cls-6" x1="112.01" y1="136.24" x2="112.15" y2="138.21"/><line class="cls-6" x1="107.17" y1="136.24" x2="107.17" y2="138.21"/><line class="cls-6" x1="102.56" y1="136.24" x2="102.56" y2="138.21"/><line class="cls-6" x1="97.65" y1="136.24" x2="97.65" y2="138.21"/><line class="cls-6" x1="93.43" y1="136.06" x2="93.34" y2="138.14"/><line class="cls-6" x1="88.81" y1="136.24" x2="88.73" y2="138.21"/><line class="cls-6" x1="86.82" y1="134.27" x2="86.71" y2="135.95"/><line class="cls-6" x1="91.29" y1="134.38" x2="91.22" y2="135.99"/><line class="cls-6" x1="95.7" y1="134.29" x2="95.7" y2="135.97"/><line class="cls-6" x1="100.21" y1="134.29" x2="100.21" y2="135.97"/><line class="cls-6" x1="104.73" y1="134.29" x2="104.73" y2="135.97"/><line class="cls-6" x1="109.09" y1="134.29" x2="109.09" y2="135.97"/><line class="cls-6" x1="113.46" y1="134.29" x2="113.62" y2="135.99"/><line class="cls-6" x1="117.9" y1="134.29" x2="118.13" y2="135.97"/><path class="cls-7" d="M69.51,82.64H133.8a2.66,2.66,0,0,1,2.66,2.66v0a0,0,0,0,1,0,0H66.84a0,0,0,0,1,0,0v0A2.66,2.66,0,0,1,69.51,82.64Z"/><rect class="cls-8" x="74.93" y="88.39" width="1.84" height="1.84" rx="0.92"/><rect class="cls-9" x="78.34" y="88.39" width="20.29" height="1.84" rx="0.92"/><rect class="cls-10" x="77.38" y="91.84" width="1.84" height="1.84" rx="0.92"/><rect class="cls-7" x="80.61" y="91.84" width="23.31" height="1.84" rx="0.92"/><rect class="cls-11" x="74.93" y="95.02" width="4.29" height="1.84" rx="0.92"/><rect class="cls-9" x="74.93" y="98.53" width="2.75" height="1.84" rx="0.92"/><rect class="cls-12" x="78.16" y="101.69" width="3.56" height="1.84" rx="0.92"/><rect class="cls-10" x="74.93" y="105.03" width="3.56" height="1.84" rx="0.92"/><rect class="cls-9" x="79.22" y="105.03" width="12.08" height="1.84" rx="0.92"/><rect class="cls-7" x="92.13" y="105.03" width="10.69" height="1.84" rx="0.92"/><rect class="cls-7" x="80.61" y="108.29" width="7.87" height="1.84" rx="0.92"/><rect class="cls-11" x="89.78" y="108.29" width="13.04" height="1.84" rx="0.92"/><rect class="cls-9" x="79.54" y="112.21" width="11.76" height="1.84" rx="0.92"/><rect class="cls-10" x="92.13" y="112.21" width="10.69" height="1.84" rx="0.92"/><rect class="cls-11" x="76.38" y="108.29" width="3.56" height="1.84" rx="0.92"/><rect class="cls-8" x="74.93" y="112.21" width="3.56" height="1.84" rx="0.92"/><rect class="cls-8" x="103.92" y="112.21" width="5.63" height="1.84" rx="0.92"/><rect class="cls-9" x="103.92" y="108.29" width="5.63" height="1.84" rx="0.92"/><rect class="cls-10" x="99.55" y="88.39" width="10.41" height="1.84" rx="0.92"/><rect class="cls-11" x="104.57" y="91.84" width="5.16" height="1.84" rx="0.92"/><rect class="cls-8" x="78.34" y="98.53" width="5.16" height="1.84" rx="0.92"/><rect class="cls-8" x="82.71" y="101.69" width="5.16" height="1.84" rx="0.92"/><rect class="cls-7" x="76.38" y="115.62" width="3.56" height="1.84" rx="0.92"/><rect class="cls-10" x="74.93" y="119.03" width="3.56" height="1.84" rx="0.92"/><rect class="cls-12" x="80.61" y="95.02" width="23.04" height="1.84" rx="0.92"/><path class="cls-13" d="M994.07,272.18c-1.29,1.7-8.66-.74-11.2,1.34-2.76,2.62,0,4.68,6.82,4.6,5.59,0,5,2.19,13.07,2.95l12.76-7.14c-.38-2.63-5.5-3.61-9-8-1.66-3.11-1.73-1.67-5.06-3-1.46-.41-1.83-1.2-4.45-1.48-6.52-.76-6,1.27-8.09,2.6-.69.58-1.64-.56-3.54,1.21-1.31,1-3.9,2.44-2.46,4.07.74.88,3.25-1.34,4.84-1.36a7.38,7.38,0,0,1,2.47.43C991.9,269.28,991.31,270.68,994.07,272.18Z" transform="translate(-866.55 -130.26)"/><path class="cls-13" d="M930.85,265.91c-3.51,4.41-8.63,5.39-9,8l12.77,7.14c8-.76,7.48-3,13.06-2.95,6.78.08,9.59-2,6.82-4.6-2.53-2.08-9.9.36-11.19-1.34,2.76-1.5,2.17-2.9,3.84-3.78a7.43,7.43,0,0,1,2.48-.43c1.59,0,4.09,2.24,4.83,1.36,1.44-1.63-1.15-3.06-2.45-4.07-1.9-1.77-2.85-.63-3.54-1.21-3.14-5.75-5.46-4.2-7.49-2.7-3.09-2.24-4.65.32-5.51,1.91C931.56,262.88,931.73,264.83,930.85,265.91Z" transform="translate(-866.55 -130.26)"/><path class="cls-14" d="M935.36,283.42c-.37-12.44-16.5-10-16.5-10a151,151,0,0,0-23,28.12,100.37,100.37,0,0,0,22.9,17.2l.21-.11C926.88,291.67,935.36,283.42,935.36,283.42Z" transform="translate(-866.55 -130.26)"/><path class="cls-14" d="M1018.31,273.38s-16.13-2.4-16.5,10c0,0,8.18,8,16,33.74A100.41,100.41,0,0,0,1040,299.41,154.5,154.5,0,0,0,1018.31,273.38Z" transform="translate(-866.55 -130.26)"/></svg>