<?xml version="1.0" encoding="utf-8"?>
<!-- Generator: Adobe Illustrator 23.0.0, SVG Export Plug-In . SVG Version: 6.00 Build 0)  -->
<svg version="1.1" id="Livello_1" xmlns="http://www.w3.org/2000/svg" xmlns:xlink="http://www.w3.org/1999/xlink" x="0px" y="0px"
	 viewBox="0 0 820 481" style="enable-background:new 0 0 820 481;" xml:space="preserve">
<g>
	<g>
		<g>
			<path d="M466.66,266.23c-1.98,0-3.88-1.15-4.7-3.09l-27.29-62.95l-8.47,18.71c-1.18,2.59-4.2,3.73-6.79,2.55
				c-2.59-1.19-3.73-4.2-2.55-6.79l13.25-29.23c0.83-1.83,2.66-3.05,4.7-3.02c2.01,0,3.84,1.22,4.67,3.09l31.89,73.54
				c1.11,2.59-0.07,5.64-2.66,6.75C468.03,266.09,467.35,266.23,466.66,266.23z"/>
		</g>
		<g>
			<path d="M402.28,266.52c-0.79,0-1.62-0.18-2.41-0.61c-2.51-1.33-3.48-4.42-2.15-6.93l14.26-27c0.9-1.69,2.62-2.73,4.52-2.73
				l14.65-0.04l0,0c2.84,0,5.14,2.3,5.14,5.14s-2.3,5.14-5.14,5.14l-11.56,0.04l-12.82,24.27
				C405.91,265.51,404.11,266.52,402.28,266.52z"/>
		</g>
	</g>
	<g>
		<g>
			<path d="M375.74,250c-2.84,0-5.14-2.3-5.14-5.14v-13.93h-13.93c-2.84,0-5.14-2.3-5.14-5.14c0-2.84,2.3-5.14,5.14-5.14h19.03
				c2.84,0,5.14,2.3,5.14,5.14v19.03C380.88,247.7,378.58,250,375.74,250z"/>
		</g>
		<g>
			<path d="M338.36,263.54c-0.83,0-1.65-0.18-2.41-0.61c-10.45-5.57-18.06-14.87-21.51-26.18c-3.45-11.31-2.26-23.31,3.3-33.72
				c5.57-10.45,14.87-18.1,26.18-21.51c11.31-3.45,23.31-2.26,33.72,3.3c2.51,1.33,3.45,4.45,2.12,6.93
				c-1.33,2.51-4.45,3.45-6.93,2.12c-8.01-4.27-17.24-5.17-25.93-2.55c-8.69,2.66-15.84,8.51-20.11,16.55
				c-4.27,8.01-5.17,17.24-2.55,25.93c2.66,8.69,8.51,15.84,16.55,20.11c2.51,1.33,3.45,4.45,2.12,6.93
				C341.99,262.53,340.19,263.54,338.36,263.54z"/>
		</g>
	</g>
	<g>
		<path d="M392.19,349c-33.68,0-65.35-13.11-89.2-36.88c-2.01-2.01-2.01-5.24,0-7.25c2.01-2.01,5.24-2.01,7.25,0
			c21.9,21.87,51.03,33.9,81.95,33.9c63.99,0,116.06-52.07,116.06-116.06c0-30.95-12.03-60.04-33.9-81.95
			c-2.01-2.01-2.01-5.24,0-7.25s5.24-2.01,7.25,0c23.81,23.81,36.91,55.48,36.91,89.16C518.52,292.34,461.85,349,392.19,349z"/>
	</g>
</g>
</svg>
