<?xml version="1.0" encoding="utf-8"?>
<!-- Generator: Adobe Illustrator 23.0.0, SVG Export Plug-In . SVG Version: 6.00 Build 0)  -->
<svg version="1.1" id="Livello_1" xmlns="http://www.w3.org/2000/svg" xmlns:xlink="http://www.w3.org/1999/xlink" x="0px" y="0px"
	 viewBox="0 0 140 70" style="enable-background:new 0 0 140 70;" xml:space="preserve">
<style type="text/css">
	.st0{fill:#FFFFFF;}
	.st1{fill:#FF8523;}
</style>
<g>
	<path class="st0" d="M87.25,30.99c-0.81,0-1.55-0.14-2.23-0.42c-0.68-0.28-1.27-0.67-1.78-1.17c-0.51-0.5-0.9-1.1-1.18-1.78
		c-0.28-0.68-0.42-1.43-0.42-2.22c0-0.8,0.14-1.54,0.42-2.22c0.28-0.68,0.67-1.28,1.18-1.78c0.51-0.5,1.1-0.89,1.78-1.17
		c0.68-0.28,1.42-0.42,2.23-0.42c0.55,0,1.08,0.06,1.59,0.19c0.51,0.13,0.97,0.32,1.38,0.58c0.07,0.05,0.13,0.11,0.16,0.18
		c0.04,0.07,0.05,0.14,0.05,0.23c0,0.14-0.05,0.25-0.15,0.33c-0.1,0.09-0.2,0.13-0.3,0.13c-0.05,0-0.1-0.01-0.14-0.02
		c-0.04-0.02-0.09-0.03-0.14-0.05c-0.35-0.19-0.74-0.34-1.15-0.46c-0.41-0.12-0.85-0.18-1.31-0.18c-0.89,0-1.69,0.21-2.38,0.61
		c-0.69,0.41-1.24,0.96-1.63,1.66c-0.39,0.7-0.59,1.5-0.59,2.39c0,0.89,0.2,1.69,0.59,2.4c0.39,0.71,0.94,1.26,1.63,1.66
		c0.69,0.4,1.49,0.61,2.38,0.61c0.47,0,0.94-0.07,1.41-0.2c0.47-0.13,0.88-0.32,1.22-0.54l-0.08,0.33v-3.58l0.23,0.22h-2.69
		c-0.14,0-0.25-0.05-0.34-0.14c-0.09-0.09-0.14-0.2-0.14-0.33c0-0.15,0.05-0.26,0.14-0.34c0.09-0.08,0.21-0.12,0.34-0.12h2.96
		c0.15,0,0.26,0.04,0.35,0.13c0.09,0.09,0.13,0.2,0.13,0.33v3.75c0,0.08-0.02,0.16-0.06,0.23c-0.04,0.07-0.1,0.14-0.17,0.19
		c-0.47,0.31-0.98,0.56-1.55,0.74C88.43,30.9,87.85,30.99,87.25,30.99z"/>
	<path class="st0" d="M99.62,22.89c0.13,0,0.25,0.05,0.33,0.14c0.09,0.09,0.13,0.21,0.13,0.34v7c0,0.12-0.05,0.23-0.14,0.33
		c-0.09,0.09-0.2,0.14-0.33,0.14c-0.15,0-0.26-0.05-0.35-0.14c-0.09-0.09-0.13-0.2-0.13-0.33v-1.85l0.28-0.11
		c0,0.28-0.08,0.57-0.24,0.88c-0.16,0.31-0.38,0.59-0.66,0.84c-0.28,0.25-0.61,0.46-0.99,0.62c-0.38,0.16-0.79,0.24-1.24,0.24
		c-0.7,0-1.32-0.18-1.87-0.54c-0.55-0.36-0.99-0.86-1.31-1.49c-0.32-0.63-0.47-1.34-0.47-2.13c0-0.81,0.16-1.52,0.48-2.14
		c0.32-0.62,0.76-1.1,1.31-1.45c0.55-0.35,1.17-0.53,1.85-0.53c0.45,0,0.86,0.08,1.25,0.23c0.39,0.16,0.73,0.37,1.02,0.64
		c0.29,0.27,0.52,0.58,0.68,0.93c0.16,0.35,0.24,0.71,0.24,1.08l-0.33-0.23v-1.98c0-0.13,0.04-0.25,0.13-0.34
		C99.35,22.94,99.47,22.89,99.62,22.89z M96.38,30.12c0.55,0,1.04-0.14,1.46-0.43c0.43-0.29,0.76-0.68,1-1.18
		c0.24-0.5,0.37-1.07,0.37-1.69c0-0.6-0.12-1.15-0.37-1.64c-0.24-0.49-0.58-0.88-1-1.17c-0.43-0.28-0.91-0.43-1.46-0.43
		c-0.54,0-1.02,0.14-1.45,0.41c-0.43,0.27-0.77,0.66-1.01,1.14c-0.24,0.49-0.37,1.05-0.37,1.68c0,0.62,0.12,1.18,0.36,1.69
		c0.24,0.5,0.57,0.9,1,1.18C95.34,29.98,95.83,30.12,96.38,30.12z"/>
	<path class="st0" d="M106.31,22.7c0.71,0,1.33,0.18,1.87,0.53c0.54,0.35,0.98,0.84,1.3,1.45c0.32,0.62,0.48,1.33,0.48,2.14
		c0,0.79-0.16,1.5-0.48,2.13c-0.32,0.63-0.76,1.13-1.31,1.49c-0.55,0.36-1.17,0.54-1.85,0.54c-0.36,0-0.71-0.06-1.03-0.17
		c-0.33-0.11-0.63-0.27-0.89-0.46c-0.27-0.19-0.51-0.42-0.72-0.68c-0.21-0.26-0.37-0.53-0.5-0.82l0.28-0.22v1.76
		c0,0.14-0.04,0.25-0.13,0.34c-0.09,0.09-0.2,0.14-0.33,0.14c-0.14,0-0.25-0.05-0.34-0.14c-0.09-0.09-0.14-0.21-0.14-0.34V19.81
		c0-0.12,0.04-0.23,0.13-0.33c0.09-0.09,0.2-0.14,0.35-0.14c0.13,0,0.25,0.05,0.33,0.14c0.09,0.09,0.13,0.2,0.13,0.33v5.21
		l-0.22-0.12c0.1-0.32,0.26-0.61,0.46-0.88c0.2-0.26,0.44-0.49,0.71-0.69c0.27-0.2,0.57-0.35,0.89-0.46
		C105.62,22.76,105.95,22.7,106.31,22.7z M106.23,23.59c-0.56,0-1.05,0.14-1.48,0.41c-0.43,0.27-0.76,0.66-1,1.14
		c-0.24,0.49-0.37,1.05-0.37,1.68c0,0.62,0.12,1.18,0.37,1.69c0.24,0.5,0.58,0.9,1,1.18c0.43,0.29,0.92,0.43,1.48,0.43
		c0.55,0,1.03-0.15,1.45-0.44c0.42-0.29,0.75-0.69,1-1.19c0.24-0.5,0.37-1.06,0.37-1.67c0-0.63-0.12-1.19-0.37-1.68
		c-0.24-0.49-0.58-0.87-1-1.14C107.26,23.73,106.78,23.59,106.23,23.59z"/>
	<path class="st0" d="M112.36,30.84c-0.15,0-0.26-0.05-0.35-0.14c-0.09-0.09-0.13-0.2-0.13-0.33V23.4c0-0.12,0.05-0.23,0.14-0.33
		c0.09-0.09,0.21-0.14,0.34-0.14c0.13,0,0.25,0.05,0.33,0.14c0.09,0.09,0.13,0.2,0.13,0.33v2.33l-0.23,0.05
		c0.03-0.36,0.12-0.72,0.27-1.08c0.15-0.36,0.36-0.69,0.61-0.99c0.26-0.3,0.57-0.54,0.93-0.73c0.36-0.19,0.76-0.28,1.21-0.28
		c0.19,0,0.37,0.04,0.54,0.12c0.18,0.08,0.26,0.21,0.26,0.38c0,0.16-0.04,0.27-0.12,0.36c-0.08,0.08-0.18,0.12-0.3,0.12
		c-0.09,0-0.19-0.03-0.3-0.08c-0.11-0.05-0.25-0.08-0.43-0.08c-0.29,0-0.58,0.09-0.87,0.26c-0.29,0.17-0.55,0.4-0.79,0.69
		c-0.24,0.29-0.43,0.61-0.57,0.97c-0.14,0.36-0.21,0.72-0.21,1.08v3.84c0,0.12-0.05,0.23-0.14,0.33
		C112.59,30.79,112.48,30.84,112.36,30.84z"/>
	<path class="st0" d="M118.31,21.71c-0.22,0-0.38-0.05-0.49-0.15c-0.11-0.1-0.16-0.24-0.16-0.43v-0.16c0-0.19,0.06-0.33,0.18-0.43
		c0.12-0.1,0.28-0.15,0.49-0.15c0.2,0,0.35,0.05,0.46,0.15c0.11,0.1,0.16,0.24,0.16,0.43v0.16c0,0.19-0.05,0.33-0.16,0.43
		C118.68,21.66,118.52,21.71,118.31,21.71z M118.78,30.37c0,0.12-0.05,0.23-0.14,0.33c-0.09,0.09-0.2,0.14-0.33,0.14
		c-0.15,0-0.26-0.05-0.34-0.14c-0.08-0.09-0.12-0.2-0.12-0.33v-7.16c0-0.12,0.04-0.23,0.13-0.33c0.09-0.09,0.2-0.14,0.33-0.14
		c0.13,0,0.25,0.05,0.33,0.14c0.09,0.09,0.13,0.2,0.13,0.33V30.37z"/>
	<path class="st0" d="M124.74,30.99c-0.81,0-1.52-0.17-2.12-0.51c-0.61-0.34-1.08-0.82-1.42-1.43c-0.34-0.61-0.51-1.33-0.51-2.15
		c0-0.88,0.17-1.63,0.52-2.26c0.35-0.62,0.8-1.1,1.35-1.44c0.55-0.34,1.14-0.51,1.77-0.51c0.46,0,0.9,0.08,1.33,0.24
		c0.43,0.16,0.81,0.4,1.14,0.72c0.33,0.32,0.6,0.7,0.81,1.16c0.21,0.46,0.32,0.99,0.33,1.59c0,0.12-0.05,0.23-0.14,0.32
		c-0.09,0.09-0.2,0.13-0.33,0.13h-6.24l-0.19-0.84h6.11l-0.2,0.19v-0.31c-0.04-0.49-0.2-0.9-0.47-1.24
		c-0.27-0.34-0.59-0.6-0.97-0.78c-0.38-0.18-0.78-0.27-1.19-0.27c-0.31,0-0.63,0.06-0.96,0.19c-0.33,0.12-0.62,0.32-0.89,0.58
		s-0.48,0.6-0.65,1.01c-0.17,0.41-0.25,0.89-0.25,1.45c0,0.61,0.12,1.17,0.37,1.66c0.25,0.5,0.61,0.89,1.07,1.18
		c0.47,0.29,1.03,0.44,1.7,0.44c0.35,0,0.67-0.05,0.96-0.16c0.29-0.1,0.55-0.24,0.77-0.41c0.22-0.17,0.41-0.35,0.55-0.54
		c0.1-0.09,0.21-0.14,0.33-0.14c0.11,0,0.21,0.04,0.29,0.12c0.08,0.08,0.12,0.18,0.12,0.28c0,0.12-0.05,0.23-0.16,0.33
		c-0.31,0.37-0.72,0.7-1.21,0.97S125.33,30.99,124.74,30.99z"/>
	<path class="st0" d="M130.88,30.37c0,0.12-0.05,0.23-0.14,0.33c-0.09,0.09-0.2,0.14-0.33,0.14c-0.14,0-0.25-0.05-0.33-0.14
		c-0.09-0.09-0.13-0.2-0.13-0.33V19.79c0-0.12,0.05-0.23,0.14-0.33c0.09-0.09,0.2-0.14,0.33-0.14c0.13,0,0.25,0.05,0.33,0.14
		c0.09,0.09,0.13,0.2,0.13,0.33V30.37z"/>
	<path class="st0" d="M136.81,30.99c-0.81,0-1.52-0.17-2.12-0.51c-0.61-0.34-1.08-0.82-1.42-1.43c-0.34-0.61-0.51-1.33-0.51-2.15
		c0-0.88,0.17-1.63,0.52-2.26c0.35-0.62,0.8-1.1,1.35-1.44c0.55-0.34,1.14-0.51,1.77-0.51c0.46,0,0.9,0.08,1.33,0.24
		c0.43,0.16,0.81,0.4,1.14,0.72c0.33,0.32,0.6,0.7,0.81,1.16s0.32,0.99,0.33,1.59c0,0.12-0.05,0.23-0.14,0.32
		c-0.09,0.09-0.2,0.13-0.33,0.13h-6.24l-0.19-0.84h6.11l-0.2,0.19v-0.31c-0.04-0.49-0.2-0.9-0.47-1.24
		c-0.27-0.34-0.59-0.6-0.97-0.78c-0.38-0.18-0.78-0.27-1.19-0.27c-0.31,0-0.63,0.06-0.96,0.19c-0.33,0.12-0.62,0.32-0.89,0.58
		s-0.48,0.6-0.65,1.01c-0.17,0.41-0.25,0.89-0.25,1.45c0,0.61,0.12,1.17,0.37,1.66s0.61,0.89,1.07,1.18
		c0.47,0.29,1.03,0.44,1.7,0.44c0.35,0,0.67-0.05,0.96-0.16c0.29-0.1,0.55-0.24,0.77-0.41c0.22-0.17,0.41-0.35,0.55-0.54
		c0.1-0.09,0.21-0.14,0.33-0.14s0.21,0.04,0.29,0.12c0.08,0.08,0.12,0.18,0.12,0.28c0,0.12-0.05,0.23-0.16,0.33
		c-0.31,0.37-0.72,0.7-1.21,0.97C137.95,30.86,137.4,30.99,136.81,30.99z"/>
	<path class="st0" d="M86.01,39.83l-3.78,9.38c-0.04,0.1-0.1,0.18-0.17,0.23c-0.07,0.05-0.16,0.08-0.25,0.08
		c-0.16,0-0.27-0.04-0.34-0.12c-0.07-0.08-0.11-0.17-0.11-0.29c-0.01-0.05-0.01-0.11,0.02-0.19l4.11-10.05
		c0.04-0.11,0.1-0.19,0.18-0.24c0.08-0.05,0.17-0.07,0.27-0.07c0.11,0,0.21,0.03,0.29,0.09c0.08,0.06,0.14,0.13,0.18,0.23l4.09,10
		c0.02,0.06,0.03,0.12,0.03,0.19c0,0.15-0.05,0.26-0.14,0.33c-0.09,0.08-0.2,0.12-0.33,0.12c-0.1,0-0.19-0.03-0.27-0.09
		c-0.08-0.06-0.14-0.13-0.18-0.23l-3.87-9.46L86.01,39.83z M83.13,46.36l0.39-0.92h4.82l0.19,0.92H83.13z"/>
	<path class="st0" d="M95.93,41.37c0.68,0,1.23,0.14,1.64,0.41c0.41,0.27,0.7,0.65,0.89,1.12c0.18,0.47,0.27,0.99,0.27,1.56v4.57
		c0,0.12-0.05,0.23-0.14,0.33c-0.09,0.09-0.2,0.14-0.33,0.14c-0.15,0-0.26-0.05-0.35-0.14c-0.09-0.09-0.13-0.2-0.13-0.33v-4.53
		c0-0.41-0.07-0.79-0.2-1.14c-0.14-0.34-0.35-0.61-0.65-0.82c-0.3-0.2-0.7-0.3-1.2-0.3c-0.45,0-0.87,0.1-1.27,0.3
		c-0.4,0.2-0.72,0.47-0.97,0.82c-0.25,0.34-0.37,0.72-0.37,1.14v4.53c0,0.12-0.05,0.23-0.14,0.33c-0.09,0.09-0.2,0.14-0.33,0.14
		c-0.15,0-0.26-0.05-0.35-0.14c-0.09-0.09-0.13-0.2-0.13-0.33v-6.97c0-0.12,0.05-0.23,0.14-0.33c0.09-0.09,0.21-0.14,0.34-0.14
		c0.13,0,0.25,0.05,0.33,0.14c0.09,0.09,0.13,0.2,0.13,0.33v1.31l-0.36,0.56c0.02-0.33,0.13-0.65,0.32-0.96
		c0.19-0.31,0.44-0.58,0.74-0.82c0.3-0.24,0.64-0.44,1-0.58C95.19,41.44,95.56,41.37,95.93,41.37z"/>
	<path class="st0" d="M104.42,41.37c0.46,0,0.88,0.08,1.28,0.24c0.39,0.16,0.74,0.37,1.03,0.62c0.3,0.25,0.53,0.52,0.69,0.81
		c0.17,0.29,0.25,0.56,0.25,0.82l-0.25-0.37v-1.45c0-0.13,0.04-0.25,0.13-0.34c0.09-0.09,0.2-0.14,0.33-0.14
		c0.13,0,0.25,0.05,0.33,0.14c0.09,0.09,0.13,0.21,0.13,0.34v6.75c0,0.82-0.17,1.51-0.51,2.08c-0.34,0.57-0.81,1-1.39,1.3
		c-0.59,0.3-1.25,0.44-2,0.44c-0.36,0-0.74-0.05-1.14-0.14c-0.4-0.09-0.74-0.21-1.03-0.36c-0.29-0.15-0.45-0.3-0.49-0.45
		c-0.07-0.09-0.11-0.18-0.1-0.27c0-0.09,0.04-0.16,0.12-0.23c0.1-0.07,0.22-0.08,0.33-0.02c0.12,0.06,0.29,0.13,0.52,0.23
		c0.09,0.03,0.23,0.08,0.41,0.14c0.18,0.06,0.39,0.12,0.64,0.16c0.24,0.05,0.49,0.07,0.75,0.07c0.93,0,1.66-0.27,2.18-0.8
		c0.52-0.53,0.78-1.23,0.78-2.09v-1.49l0.16,0.05c-0.09,0.36-0.25,0.68-0.46,0.96c-0.21,0.28-0.46,0.52-0.75,0.71
		c-0.29,0.19-0.6,0.34-0.93,0.44c-0.33,0.1-0.66,0.15-1,0.15c-0.73,0-1.37-0.18-1.94-0.54c-0.57-0.36-1.02-0.86-1.35-1.48
		c-0.33-0.62-0.5-1.33-0.5-2.13c0-0.79,0.17-1.5,0.5-2.12c0.33-0.63,0.78-1.12,1.35-1.48C103.06,41.55,103.71,41.37,104.42,41.37z
		 M104.52,42.26c-0.56,0-1.07,0.14-1.52,0.42c-0.45,0.28-0.8,0.67-1.06,1.16c-0.25,0.49-0.38,1.05-0.38,1.67s0.13,1.18,0.38,1.68
		s0.61,0.89,1.06,1.17c0.45,0.29,0.96,0.43,1.52,0.43c0.57,0,1.08-0.14,1.52-0.42c0.45-0.28,0.8-0.67,1.06-1.16s0.39-1.06,0.39-1.7
		c0-0.64-0.13-1.21-0.39-1.7c-0.26-0.49-0.61-0.87-1.06-1.14C105.6,42.39,105.09,42.26,104.52,42.26z"/>
	<path class="st0" d="M111.25,40.37c-0.22,0-0.38-0.05-0.49-0.15c-0.11-0.1-0.16-0.24-0.16-0.43v-0.16c0-0.19,0.06-0.33,0.18-0.43
		c0.12-0.1,0.28-0.15,0.49-0.15c0.2,0,0.35,0.05,0.46,0.15c0.11,0.1,0.16,0.24,0.16,0.43v0.16c0,0.19-0.05,0.33-0.16,0.43
		C111.62,40.32,111.46,40.37,111.25,40.37z M111.72,49.04c0,0.12-0.05,0.23-0.14,0.33c-0.09,0.09-0.2,0.14-0.33,0.14
		c-0.15,0-0.26-0.05-0.34-0.14c-0.08-0.09-0.12-0.2-0.12-0.33v-7.16c0-0.12,0.04-0.23,0.13-0.33c0.09-0.09,0.2-0.14,0.33-0.14
		s0.25,0.05,0.33,0.14c0.09,0.09,0.13,0.2,0.13,0.33V49.04z"/>
	<path class="st0" d="M120.09,41.6c0.13,0,0.25,0.05,0.33,0.14c0.09,0.09,0.13,0.2,0.13,0.33v4.39c0,1.03-0.29,1.81-0.87,2.35
		c-0.58,0.54-1.36,0.81-2.35,0.81c-0.99,0-1.77-0.27-2.34-0.81c-0.58-0.54-0.86-1.32-0.86-2.35v-4.39c0-0.12,0.05-0.23,0.14-0.33
		c0.09-0.09,0.21-0.14,0.34-0.14s0.25,0.05,0.33,0.14c0.09,0.09,0.13,0.2,0.13,0.33v4.39c0,0.75,0.2,1.31,0.6,1.7
		c0.4,0.39,0.95,0.58,1.66,0.58c0.72,0,1.27-0.19,1.67-0.58c0.4-0.39,0.6-0.96,0.6-1.7v-4.39c0-0.12,0.04-0.23,0.13-0.33
		C119.83,41.65,119.94,41.6,120.09,41.6z"/>
	<path class="st0" d="M122.55,48.24c-0.08-0.12-0.12-0.25-0.12-0.37c0.01-0.12,0.07-0.22,0.19-0.29c0.08-0.07,0.18-0.1,0.29-0.09
		c0.11,0.01,0.21,0.06,0.3,0.16c0.28,0.36,0.62,0.66,1.02,0.88c0.4,0.22,0.87,0.33,1.42,0.33c0.29,0,0.58-0.05,0.86-0.15
		c0.28-0.1,0.52-0.25,0.71-0.45s0.28-0.46,0.28-0.77c0-0.32-0.09-0.58-0.28-0.77c-0.19-0.19-0.43-0.35-0.72-0.47
		c-0.3-0.12-0.61-0.22-0.96-0.3c-0.35-0.09-0.69-0.2-1.02-0.32c-0.33-0.12-0.62-0.27-0.88-0.45c-0.26-0.18-0.46-0.4-0.61-0.66
		c-0.15-0.26-0.23-0.58-0.23-0.95c0-0.44,0.12-0.82,0.35-1.15c0.23-0.33,0.56-0.59,0.97-0.78c0.41-0.19,0.88-0.28,1.38-0.28
		c0.27,0,0.55,0.03,0.86,0.1c0.3,0.07,0.6,0.18,0.89,0.33c0.29,0.16,0.55,0.37,0.78,0.64c0.09,0.09,0.14,0.2,0.14,0.32
		c0,0.12-0.05,0.23-0.16,0.33c-0.08,0.06-0.18,0.09-0.29,0.09c-0.11-0.01-0.2-0.05-0.27-0.13c-0.25-0.28-0.54-0.49-0.89-0.63
		c-0.34-0.14-0.71-0.21-1.1-0.21c-0.3,0-0.58,0.05-0.85,0.14c-0.26,0.09-0.48,0.24-0.66,0.44c-0.18,0.2-0.26,0.46-0.26,0.78
		c0.02,0.3,0.13,0.54,0.32,0.73c0.19,0.19,0.45,0.34,0.76,0.47c0.32,0.12,0.67,0.24,1.07,0.34c0.33,0.08,0.65,0.18,0.96,0.3
		c0.31,0.11,0.58,0.26,0.81,0.43c0.23,0.17,0.42,0.39,0.56,0.65c0.14,0.26,0.21,0.59,0.21,0.98c0,0.46-0.13,0.85-0.38,1.18
		c-0.25,0.33-0.59,0.59-1.02,0.76c-0.43,0.18-0.9,0.26-1.42,0.26c-0.56,0-1.1-0.11-1.63-0.33
		C123.41,49.12,122.95,48.75,122.55,48.24z"/>
</g>
<g>
	<g>
		<g>
			<path class="st1" d="M54.66,47.21c-0.55,0-1.07-0.32-1.3-0.85l-7.51-17.33l-2.34,5.15c-0.32,0.71-1.16,1.02-1.87,0.7
				c-0.71-0.32-1.02-1.16-0.7-1.87l3.65-8.05c0.23-0.51,0.73-0.84,1.3-0.83c0.56,0,1.06,0.34,1.28,0.85l8.78,20.25
				c0.31,0.72-0.02,1.55-0.73,1.86C55.04,47.17,54.85,47.21,54.66,47.21z"/>
		</g>
		<g>
			<path class="st1" d="M36.94,47.29c-0.22,0-0.45-0.05-0.66-0.16c-0.69-0.36-0.95-1.22-0.59-1.91l3.92-7.44
				c0.24-0.46,0.72-0.75,1.25-0.75l4.03-0.01c0,0,0,0,0,0c0.78,0,1.41,0.63,1.41,1.41c0,0.78-0.63,1.41-1.41,1.41l-3.18,0.01
				l-3.53,6.69C37.93,47.02,37.44,47.29,36.94,47.29z"/>
		</g>
	</g>
	<g>
		<g>
			<path class="st0" d="M29.63,42.74c-0.78,0-1.41-0.63-1.41-1.41V37.5h-3.83c-0.78,0-1.41-0.63-1.41-1.41s0.63-1.41,1.41-1.41h5.24
				c0.78,0,1.41,0.63,1.41,1.41v5.24C31.04,42.11,30.41,42.74,29.63,42.74z"/>
		</g>
		<g>
			<path class="st0" d="M19.34,46.47c-0.22,0-0.45-0.05-0.66-0.17c-2.87-1.53-4.98-4.09-5.93-7.21c-0.95-3.12-0.63-6.41,0.91-9.29
				c1.53-2.87,4.09-4.98,7.21-5.93c3.12-0.95,6.41-0.63,9.29,0.91c0.69,0.37,0.95,1.22,0.58,1.91c-0.37,0.69-1.22,0.95-1.91,0.58
				c-2.21-1.18-4.74-1.43-7.14-0.7c-2.39,0.73-4.36,2.35-5.54,4.55c-1.18,2.21-1.43,4.74-0.7,7.14c0.73,2.39,2.35,4.36,4.55,5.54
				c0.69,0.37,0.95,1.22,0.58,1.91C20.33,46.2,19.84,46.47,19.34,46.47z"/>
		</g>
	</g>
	<g>
		<path class="st1" d="M34.16,70c-9.27,0-18-3.61-24.56-10.16c-0.55-0.55-0.55-1.45,0-2c0.55-0.55,1.45-0.55,2,0
			c6.03,6.02,14.05,9.33,22.57,9.33c17.62,0,31.95-14.33,31.95-31.95c0-8.52-3.31-16.53-9.33-22.57c-0.55-0.55-0.55-1.45,0-2
			c0.55-0.55,1.45-0.55,2,0c6.55,6.57,10.16,15.29,10.16,24.56C68.94,54.4,53.34,70,34.16,70z"/>
	</g>
</g>
</svg>
