<?xml version="1.0" encoding="utf-8"?>
<!-- Generator: Adobe Illustrator 23.0.0, SVG Export Plug-In . SVG Version: 6.00 Build 0)  -->
<svg version="1.1" id="Livello_1" xmlns="http://www.w3.org/2000/svg" xmlns:xlink="http://www.w3.org/1999/xlink" x="0px" y="0px"
	 viewBox="0 0 70 117" style="enable-background:new 0 0 70 117;" xml:space="preserve">
<style type="text/css">
	.st0{fill:#FFFFFF;}
	.st1{fill:#FF8523;}
</style>
<g>
	<path class="st0" d="M14.74,93.97c-0.82,0-1.57-0.14-2.26-0.42c-0.69-0.28-1.29-0.68-1.8-1.19c-0.51-0.51-0.91-1.11-1.2-1.8
		c-0.28-0.69-0.42-1.44-0.42-2.25c0-0.81,0.14-1.56,0.42-2.25c0.28-0.69,0.68-1.29,1.2-1.8c0.51-0.51,1.11-0.9,1.8-1.19
		c0.69-0.28,1.44-0.42,2.26-0.42c0.56,0,1.09,0.07,1.6,0.2c0.51,0.13,0.98,0.33,1.4,0.59c0.07,0.05,0.13,0.11,0.17,0.18
		c0.04,0.07,0.06,0.14,0.06,0.23c0,0.14-0.05,0.25-0.15,0.34c-0.1,0.09-0.2,0.13-0.31,0.13c-0.05,0-0.1-0.01-0.14-0.02
		c-0.04-0.02-0.09-0.03-0.14-0.06c-0.36-0.19-0.74-0.34-1.16-0.46c-0.42-0.12-0.86-0.18-1.32-0.18c-0.9,0-1.7,0.21-2.41,0.62
		s-1.25,0.98-1.65,1.68c-0.4,0.71-0.6,1.51-0.6,2.41c0,0.9,0.2,1.71,0.6,2.42c0.4,0.71,0.95,1.27,1.65,1.68
		c0.7,0.41,1.5,0.61,2.41,0.61c0.47,0,0.95-0.07,1.42-0.2c0.48-0.14,0.89-0.32,1.23-0.55l-0.08,0.33v-3.62l0.24,0.22h-2.72
		c-0.14,0-0.25-0.05-0.35-0.14c-0.09-0.09-0.14-0.2-0.14-0.33c0-0.15,0.05-0.26,0.14-0.35c0.09-0.08,0.21-0.13,0.35-0.13h2.99
		c0.15,0,0.26,0.05,0.35,0.13c0.09,0.09,0.13,0.2,0.13,0.34v3.79c0,0.08-0.02,0.16-0.06,0.24c-0.04,0.07-0.1,0.14-0.17,0.19
		c-0.47,0.31-0.99,0.56-1.57,0.75C15.94,93.88,15.35,93.97,14.74,93.97z"/>
	<path class="st0" d="M27.25,85.78c0.14,0,0.25,0.05,0.34,0.14c0.09,0.09,0.13,0.21,0.13,0.35v7.08c0,0.13-0.05,0.24-0.14,0.33
		c-0.09,0.09-0.2,0.14-0.33,0.14c-0.15,0-0.26-0.05-0.35-0.14c-0.09-0.09-0.13-0.2-0.13-0.33v-1.87l0.28-0.11
		c0,0.28-0.08,0.58-0.24,0.89c-0.16,0.31-0.39,0.59-0.67,0.85c-0.28,0.26-0.62,0.47-1,0.63c-0.38,0.16-0.8,0.24-1.25,0.24
		c-0.7,0-1.33-0.18-1.9-0.55c-0.56-0.37-1-0.87-1.32-1.51c-0.32-0.64-0.48-1.36-0.48-2.16c0-0.82,0.16-1.54,0.49-2.16
		c0.33-0.62,0.77-1.11,1.32-1.47c0.56-0.36,1.18-0.53,1.87-0.53c0.45,0,0.87,0.08,1.27,0.24c0.39,0.16,0.74,0.37,1.03,0.64
		c0.29,0.27,0.52,0.58,0.68,0.94c0.16,0.35,0.24,0.72,0.24,1.09l-0.33-0.24v-2c0-0.14,0.04-0.25,0.13-0.35
		C26.98,85.82,27.1,85.78,27.25,85.78z M23.98,93.09c0.56,0,1.05-0.14,1.48-0.43c0.43-0.29,0.77-0.69,1.01-1.2
		c0.25-0.51,0.37-1.08,0.37-1.71c0-0.61-0.12-1.16-0.37-1.66c-0.25-0.5-0.58-0.89-1.01-1.18c-0.43-0.29-0.92-0.43-1.48-0.43
		c-0.55,0-1.04,0.14-1.47,0.42c-0.44,0.28-0.78,0.66-1.02,1.16c-0.25,0.49-0.37,1.06-0.37,1.7c0,0.63,0.12,1.2,0.36,1.71
		c0.24,0.51,0.58,0.91,1.01,1.2C22.93,92.95,23.42,93.09,23.98,93.09z"/>
	<path class="st0" d="M34.01,85.59c0.71,0,1.34,0.18,1.9,0.53c0.55,0.36,0.99,0.85,1.31,1.47c0.32,0.62,0.49,1.34,0.49,2.16
		c0,0.8-0.16,1.52-0.49,2.16c-0.33,0.64-0.77,1.14-1.32,1.51c-0.56,0.37-1.18,0.55-1.87,0.55c-0.37,0-0.72-0.06-1.05-0.17
		c-0.33-0.12-0.63-0.27-0.9-0.46c-0.27-0.19-0.51-0.42-0.72-0.68c-0.21-0.26-0.38-0.54-0.5-0.83l0.28-0.22v1.78
		c0,0.14-0.04,0.25-0.13,0.35c-0.09,0.09-0.2,0.14-0.34,0.14c-0.14,0-0.25-0.05-0.35-0.14c-0.09-0.09-0.14-0.21-0.14-0.35V82.66
		c0-0.13,0.04-0.24,0.13-0.33c0.09-0.09,0.21-0.14,0.35-0.14c0.14,0,0.25,0.05,0.34,0.14c0.09,0.09,0.13,0.2,0.13,0.33v5.27
		l-0.22-0.13c0.1-0.32,0.26-0.62,0.46-0.89c0.2-0.27,0.44-0.5,0.72-0.7c0.27-0.2,0.57-0.35,0.9-0.46
		C33.32,85.64,33.66,85.59,34.01,85.59z M33.93,86.48c-0.57,0-1.06,0.14-1.49,0.42c-0.43,0.28-0.77,0.66-1.01,1.16
		c-0.25,0.49-0.37,1.06-0.37,1.7c0,0.63,0.12,1.2,0.37,1.71s0.58,0.91,1.01,1.2c0.43,0.29,0.93,0.43,1.49,0.43
		c0.56,0,1.05-0.15,1.47-0.44c0.42-0.29,0.76-0.69,1.01-1.2c0.25-0.51,0.37-1.07,0.37-1.69c0-0.64-0.12-1.21-0.37-1.7
		c-0.25-0.49-0.58-0.88-1.01-1.16C34.98,86.62,34.49,86.48,33.93,86.48z"/>
	<path class="st0" d="M40.13,93.81c-0.15,0-0.26-0.05-0.35-0.14c-0.09-0.09-0.13-0.2-0.13-0.33v-7.05c0-0.13,0.05-0.24,0.14-0.33
		c0.09-0.09,0.21-0.14,0.35-0.14c0.14,0,0.25,0.05,0.34,0.14c0.09,0.09,0.13,0.2,0.13,0.33v2.36l-0.24,0.05
		c0.03-0.37,0.12-0.73,0.28-1.09c0.15-0.36,0.36-0.69,0.62-1c0.26-0.3,0.57-0.55,0.94-0.74c0.36-0.19,0.77-0.28,1.22-0.28
		c0.19,0,0.37,0.04,0.55,0.12c0.18,0.08,0.27,0.21,0.27,0.39c0,0.16-0.04,0.28-0.13,0.36c-0.08,0.08-0.18,0.13-0.3,0.13
		c-0.09,0-0.2-0.03-0.31-0.08c-0.11-0.05-0.25-0.08-0.43-0.08c-0.29,0-0.59,0.09-0.88,0.26c-0.29,0.17-0.56,0.41-0.8,0.7
		c-0.24,0.29-0.43,0.62-0.57,0.98c-0.14,0.36-0.21,0.73-0.21,1.09v3.89c0,0.13-0.05,0.24-0.14,0.33
		C40.37,93.77,40.26,93.81,40.13,93.81z"/>
	<path class="st0" d="M46.16,84.58c-0.22,0-0.39-0.05-0.5-0.15c-0.11-0.1-0.17-0.24-0.17-0.43v-0.16c0-0.19,0.06-0.33,0.18-0.43
		c0.12-0.1,0.29-0.15,0.5-0.15c0.2,0,0.35,0.05,0.46,0.15c0.11,0.1,0.17,0.24,0.17,0.43V84c0,0.19-0.05,0.33-0.17,0.43
		C46.53,84.53,46.37,84.58,46.16,84.58z M46.63,93.34c0,0.13-0.05,0.24-0.14,0.33c-0.09,0.09-0.2,0.14-0.33,0.14
		c-0.15,0-0.26-0.05-0.35-0.14c-0.08-0.09-0.13-0.2-0.13-0.33v-7.24c0-0.13,0.04-0.24,0.13-0.33c0.09-0.09,0.2-0.14,0.34-0.14
		c0.14,0,0.25,0.05,0.34,0.14c0.09,0.09,0.13,0.2,0.13,0.33V93.34z"/>
	<path class="st0" d="M52.65,93.97c-0.82,0-1.53-0.17-2.15-0.52c-0.61-0.35-1.09-0.83-1.44-1.45c-0.35-0.62-0.52-1.34-0.52-2.17
		c0-0.89,0.18-1.65,0.53-2.28s0.81-1.11,1.37-1.46c0.56-0.34,1.16-0.51,1.79-0.51c0.46,0,0.91,0.08,1.34,0.24
		c0.44,0.16,0.82,0.4,1.16,0.72c0.34,0.32,0.61,0.71,0.82,1.17c0.21,0.46,0.32,1,0.33,1.6c0,0.13-0.05,0.23-0.14,0.32
		c-0.09,0.09-0.2,0.13-0.33,0.13H49.1l-0.19-0.85h6.18l-0.2,0.19v-0.32c-0.04-0.49-0.2-0.91-0.47-1.25c-0.27-0.34-0.6-0.6-0.98-0.79
		c-0.38-0.18-0.78-0.28-1.2-0.28c-0.31,0-0.64,0.06-0.97,0.19c-0.33,0.13-0.63,0.32-0.9,0.59c-0.27,0.27-0.49,0.61-0.65,1.02
		c-0.17,0.41-0.25,0.91-0.25,1.47c0,0.62,0.13,1.18,0.38,1.68s0.61,0.9,1.09,1.2c0.47,0.29,1.04,0.44,1.71,0.44
		c0.36,0,0.68-0.05,0.98-0.16c0.29-0.11,0.55-0.24,0.78-0.42c0.23-0.17,0.41-0.35,0.56-0.54c0.1-0.09,0.21-0.14,0.33-0.14
		c0.12,0,0.21,0.04,0.29,0.13c0.08,0.08,0.12,0.18,0.12,0.28c0,0.13-0.05,0.24-0.16,0.33c-0.31,0.38-0.72,0.71-1.23,0.98
		S53.25,93.97,52.65,93.97z"/>
	<path class="st0" d="M58.87,93.34c0,0.13-0.05,0.24-0.14,0.33c-0.09,0.09-0.2,0.14-0.33,0.14c-0.14,0-0.25-0.05-0.34-0.14
		c-0.09-0.09-0.13-0.2-0.13-0.33v-10.7c0-0.13,0.05-0.24,0.14-0.33c0.09-0.09,0.2-0.14,0.33-0.14c0.14,0,0.25,0.05,0.34,0.14
		c0.09,0.09,0.13,0.2,0.13,0.33V93.34z"/>
	<path class="st0" d="M64.86,93.97c-0.82,0-1.53-0.17-2.15-0.52c-0.61-0.35-1.09-0.83-1.44-1.45c-0.35-0.62-0.52-1.34-0.52-2.17
		c0-0.89,0.18-1.65,0.53-2.28c0.35-0.63,0.81-1.11,1.37-1.46c0.56-0.34,1.16-0.51,1.79-0.51c0.46,0,0.91,0.08,1.35,0.24
		c0.43,0.16,0.82,0.4,1.16,0.72c0.34,0.32,0.61,0.71,0.82,1.17c0.21,0.46,0.32,1,0.33,1.6c0,0.13-0.05,0.23-0.14,0.32
		c-0.09,0.09-0.2,0.13-0.33,0.13H61.3l-0.19-0.85h6.18l-0.2,0.19v-0.32c-0.04-0.49-0.2-0.91-0.47-1.25s-0.6-0.6-0.98-0.79
		c-0.38-0.18-0.78-0.28-1.2-0.28c-0.31,0-0.64,0.06-0.97,0.19c-0.33,0.13-0.63,0.32-0.9,0.59c-0.27,0.27-0.49,0.61-0.65,1.02
		c-0.17,0.41-0.25,0.91-0.25,1.47c0,0.62,0.13,1.18,0.38,1.68s0.61,0.9,1.09,1.2c0.47,0.29,1.04,0.44,1.71,0.44
		c0.36,0,0.68-0.05,0.98-0.16c0.29-0.11,0.55-0.24,0.78-0.42c0.23-0.17,0.41-0.35,0.56-0.54c0.1-0.09,0.21-0.14,0.33-0.14
		c0.12,0,0.21,0.04,0.29,0.13c0.08,0.08,0.12,0.18,0.12,0.28c0,0.13-0.05,0.24-0.16,0.33c-0.31,0.38-0.72,0.71-1.23,0.98
		C66.01,93.83,65.46,93.97,64.86,93.97z"/>
	<path class="st0" d="M13.49,102.9l-3.82,9.49c-0.04,0.11-0.1,0.18-0.17,0.24c-0.07,0.05-0.16,0.08-0.25,0.08
		c-0.16,0-0.27-0.04-0.35-0.12c-0.07-0.08-0.11-0.18-0.11-0.29c-0.01-0.05-0.01-0.12,0.02-0.19l4.15-10.16
		c0.04-0.11,0.1-0.2,0.18-0.24c0.08-0.05,0.17-0.07,0.28-0.07c0.12,0,0.21,0.03,0.29,0.09s0.14,0.13,0.18,0.23l4.14,10.11
		c0.02,0.06,0.03,0.13,0.03,0.19c0,0.15-0.05,0.26-0.14,0.34c-0.09,0.08-0.2,0.12-0.33,0.12c-0.1,0-0.2-0.03-0.28-0.09
		c-0.08-0.06-0.14-0.13-0.18-0.23l-3.92-9.56L13.49,102.9z M10.58,109.51l0.39-0.93h4.88l0.19,0.93H10.58z"/>
	<path class="st0" d="M23.52,104.46c0.69,0,1.25,0.14,1.66,0.42c0.41,0.28,0.71,0.66,0.9,1.13c0.18,0.48,0.28,1,0.28,1.58v4.62
		c0,0.13-0.05,0.24-0.14,0.33s-0.2,0.14-0.33,0.14c-0.15,0-0.26-0.05-0.35-0.14s-0.13-0.2-0.13-0.33v-4.58c0-0.42-0.07-0.8-0.2-1.15
		c-0.14-0.35-0.36-0.62-0.66-0.83c-0.3-0.2-0.71-0.31-1.21-0.31c-0.45,0-0.88,0.1-1.28,0.31c-0.4,0.2-0.73,0.48-0.98,0.83
		c-0.25,0.35-0.38,0.73-0.38,1.15v4.58c0,0.13-0.05,0.24-0.14,0.33s-0.2,0.14-0.33,0.14c-0.15,0-0.26-0.05-0.35-0.14
		c-0.09-0.09-0.13-0.2-0.13-0.33v-7.05c0-0.13,0.05-0.24,0.14-0.33c0.09-0.09,0.21-0.14,0.35-0.14c0.14,0,0.25,0.05,0.34,0.14
		c0.09,0.09,0.13,0.2,0.13,0.33v1.32l-0.36,0.57c0.02-0.34,0.13-0.66,0.32-0.97c0.19-0.31,0.44-0.59,0.75-0.83
		c0.3-0.25,0.64-0.44,1.01-0.58C22.77,104.53,23.14,104.46,23.52,104.46z"/>
	<path class="st0" d="M32.11,104.46c0.46,0,0.89,0.08,1.29,0.24c0.4,0.16,0.75,0.37,1.05,0.63c0.3,0.26,0.53,0.53,0.7,0.82
		c0.17,0.29,0.25,0.56,0.25,0.83l-0.25-0.38v-1.46c0-0.14,0.04-0.25,0.13-0.35c0.09-0.09,0.2-0.14,0.34-0.14
		c0.14,0,0.25,0.05,0.34,0.14c0.09,0.09,0.13,0.21,0.13,0.35v6.83c0,0.83-0.17,1.53-0.52,2.11c-0.35,0.58-0.82,1.01-1.41,1.31
		c-0.59,0.3-1.27,0.45-2.02,0.45c-0.37,0-0.75-0.05-1.16-0.14c-0.4-0.09-0.75-0.21-1.04-0.36c-0.29-0.15-0.45-0.3-0.5-0.46
		c-0.07-0.09-0.11-0.19-0.1-0.28c0.01-0.09,0.04-0.17,0.12-0.23c0.1-0.07,0.22-0.08,0.34-0.02c0.12,0.06,0.3,0.13,0.53,0.23
		c0.09,0.03,0.23,0.08,0.42,0.14c0.18,0.06,0.4,0.12,0.65,0.17c0.25,0.05,0.5,0.07,0.76,0.07c0.94,0,1.68-0.27,2.2-0.81
		c0.52-0.54,0.79-1.25,0.79-2.12v-1.51l0.16,0.05c-0.09,0.37-0.25,0.69-0.46,0.98c-0.22,0.28-0.47,0.52-0.76,0.72
		c-0.29,0.19-0.61,0.34-0.94,0.44c-0.34,0.1-0.67,0.15-1.01,0.15c-0.73,0-1.39-0.18-1.97-0.55c-0.58-0.37-1.03-0.87-1.37-1.49
		c-0.34-0.63-0.5-1.35-0.5-2.16c0-0.8,0.17-1.51,0.5-2.15c0.34-0.63,0.79-1.13,1.37-1.49C30.74,104.64,31.39,104.46,32.11,104.46z
		 M32.2,105.36c-0.57,0-1.08,0.14-1.53,0.42c-0.46,0.28-0.81,0.67-1.07,1.17c-0.26,0.5-0.39,1.06-0.39,1.69
		c0,0.63,0.13,1.2,0.39,1.7c0.26,0.5,0.61,0.9,1.07,1.19c0.46,0.29,0.97,0.43,1.53,0.43c0.58,0,1.09-0.14,1.54-0.42
		c0.45-0.28,0.81-0.67,1.07-1.17c0.26-0.5,0.39-1.07,0.39-1.72c0-0.65-0.13-1.22-0.39-1.71c-0.26-0.49-0.62-0.88-1.07-1.16
		C33.3,105.5,32.78,105.36,32.2,105.36z"/>
	<path class="st0" d="M39.02,103.46c-0.22,0-0.39-0.05-0.5-0.15c-0.11-0.1-0.17-0.24-0.17-0.43v-0.16c0-0.19,0.06-0.33,0.18-0.43
		c0.12-0.1,0.29-0.15,0.5-0.15c0.2,0,0.35,0.05,0.46,0.15c0.11,0.1,0.17,0.24,0.17,0.43v0.16c0,0.19-0.06,0.33-0.17,0.43
		C39.39,103.41,39.23,103.46,39.02,103.46z M39.49,112.22c0,0.13-0.05,0.24-0.14,0.33c-0.09,0.09-0.2,0.14-0.33,0.14
		c-0.15,0-0.26-0.05-0.35-0.14c-0.08-0.09-0.13-0.2-0.13-0.33v-7.24c0-0.13,0.04-0.24,0.13-0.33c0.09-0.09,0.2-0.14,0.34-0.14
		s0.25,0.05,0.34,0.14c0.09,0.09,0.13,0.2,0.13,0.33V112.22z"/>
	<path class="st0" d="M47.95,104.7c0.14,0,0.25,0.05,0.34,0.14c0.09,0.09,0.13,0.2,0.13,0.33v4.44c0,1.04-0.29,1.83-0.88,2.38
		c-0.59,0.55-1.38,0.82-2.38,0.82c-1,0-1.79-0.27-2.37-0.82c-0.58-0.54-0.87-1.34-0.87-2.38v-4.44c0-0.13,0.05-0.24,0.14-0.33
		c0.09-0.09,0.21-0.14,0.35-0.14s0.25,0.05,0.34,0.14c0.09,0.09,0.13,0.2,0.13,0.33v4.44c0,0.76,0.2,1.33,0.61,1.72
		c0.4,0.39,0.96,0.59,1.68,0.59c0.72,0,1.29-0.2,1.69-0.59c0.4-0.39,0.61-0.97,0.61-1.72v-4.44c0-0.13,0.04-0.24,0.13-0.33
		C47.69,104.75,47.8,104.7,47.95,104.7z"/>
	<path class="st0" d="M50.44,111.41c-0.08-0.13-0.12-0.25-0.12-0.37c0.01-0.12,0.07-0.22,0.2-0.29c0.08-0.07,0.18-0.11,0.29-0.09
		c0.11,0.01,0.21,0.06,0.31,0.16c0.28,0.37,0.63,0.66,1.03,0.89c0.4,0.23,0.88,0.34,1.44,0.34c0.29,0,0.58-0.05,0.87-0.15
		c0.29-0.1,0.53-0.25,0.72-0.46c0.19-0.2,0.28-0.46,0.28-0.78c0-0.32-0.09-0.58-0.28-0.78s-0.43-0.35-0.73-0.47
		c-0.3-0.12-0.62-0.22-0.97-0.31c-0.36-0.09-0.7-0.2-1.03-0.32c-0.33-0.12-0.63-0.27-0.89-0.46c-0.26-0.18-0.47-0.41-0.62-0.67
		c-0.15-0.26-0.23-0.58-0.23-0.96c0-0.44,0.12-0.83,0.35-1.16c0.24-0.34,0.56-0.6,0.98-0.79c0.42-0.19,0.89-0.28,1.4-0.28
		c0.27,0,0.56,0.03,0.87,0.1s0.6,0.18,0.9,0.34c0.29,0.16,0.56,0.37,0.79,0.65c0.09,0.09,0.14,0.2,0.14,0.32
		c0,0.12-0.05,0.23-0.16,0.34c-0.08,0.06-0.18,0.09-0.29,0.09c-0.11-0.01-0.2-0.05-0.28-0.13c-0.25-0.28-0.55-0.5-0.9-0.64
		c-0.35-0.14-0.72-0.21-1.12-0.21c-0.3,0-0.59,0.05-0.86,0.14c-0.27,0.09-0.49,0.24-0.67,0.44c-0.18,0.2-0.27,0.46-0.27,0.79
		c0.02,0.3,0.13,0.55,0.32,0.74c0.19,0.19,0.45,0.35,0.77,0.47s0.68,0.24,1.08,0.35c0.34,0.08,0.66,0.18,0.97,0.3
		c0.31,0.12,0.58,0.26,0.82,0.43c0.24,0.17,0.42,0.39,0.57,0.65c0.14,0.26,0.21,0.59,0.21,0.99c0,0.46-0.13,0.86-0.39,1.2
		c-0.26,0.34-0.6,0.59-1.03,0.77c-0.43,0.18-0.91,0.27-1.43,0.27c-0.57,0-1.11-0.11-1.64-0.33
		C51.31,112.3,50.84,111.93,50.44,111.41z"/>
</g>
<g>
	<g>
		<g>
			<path class="st1" d="M55.57,47.95c-0.55,0-1.08-0.32-1.31-0.86l-7.6-17.52l-2.36,5.21c-0.33,0.72-1.17,1.04-1.89,0.71
				c-0.72-0.33-1.04-1.17-0.71-1.89l3.69-8.14c0.23-0.51,0.74-0.85,1.31-0.84c0.56,0,1.07,0.34,1.3,0.86l8.88,20.47
				c0.31,0.72-0.02,1.56-0.74,1.88C55.95,47.92,55.75,47.95,55.57,47.95z"/>
		</g>
		<g>
			<path class="st1" d="M37.64,48.04c-0.22,0-0.45-0.05-0.66-0.17c-0.7-0.37-0.97-1.23-0.6-1.93l3.97-7.52
				c0.25-0.47,0.73-0.76,1.26-0.76l4.07-0.01c0,0,0,0,0,0c0.79,0,1.43,0.64,1.43,1.43c0,0.79-0.64,1.43-1.43,1.43l-3.21,0.01
				l-3.56,6.76C38.65,47.76,38.15,48.04,37.64,48.04z"/>
		</g>
	</g>
	<g>
		<g>
			<path class="st0" d="M30.25,43.44c-0.79,0-1.43-0.64-1.43-1.43v-3.87h-3.88c-0.79,0-1.43-0.64-1.43-1.43
				c0-0.79,0.64-1.43,1.43-1.43h5.3c0.79,0,1.43,0.64,1.43,1.43v5.3C31.68,42.8,31.04,43.44,30.25,43.44z"/>
		</g>
		<g>
			<path class="st0" d="M19.84,47.2c-0.23,0-0.46-0.05-0.67-0.17c-2.91-1.55-5.03-4.14-5.99-7.29c-0.96-3.15-0.63-6.49,0.92-9.39
				c1.55-2.91,4.14-5.03,7.29-5.99c3.15-0.96,6.49-0.63,9.39,0.92c0.7,0.37,0.96,1.24,0.59,1.93c-0.37,0.7-1.24,0.96-1.93,0.59
				c-2.23-1.19-4.8-1.44-7.22-0.71c-2.42,0.74-4.41,2.37-5.6,4.6c-1.19,2.23-1.44,4.8-0.7,7.22c0.74,2.42,2.37,4.41,4.6,5.6
				c0.7,0.37,0.96,1.24,0.59,1.93C20.85,46.93,20.36,47.2,19.84,47.2z"/>
		</g>
	</g>
	<g>
		<path class="st1" d="M34.83,71c-9.38,0-18.2-3.65-24.84-10.27c-0.56-0.56-0.56-1.46,0-2.02c0.56-0.56,1.46-0.56,2.02,0
			c6.1,6.08,14.2,9.44,22.82,9.44c17.82,0,32.31-14.49,32.31-32.31c0-8.61-3.35-16.72-9.44-22.82c-0.56-0.56-0.56-1.46,0-2.02
			c0.56-0.56,1.46-0.56,2.02,0C66.35,17.64,70,26.46,70,35.83C70,55.22,54.22,71,34.83,71z"/>
	</g>
</g>
</svg>
