<?xml version="1.0" encoding="utf-8"?>
<!-- Generator: Adobe Illustrator 23.0.0, SVG Export Plug-In . SVG Version: 6.00 Build 0)  -->
<svg version="1.1" id="Livello_1" xmlns="http://www.w3.org/2000/svg" xmlns:xlink="http://www.w3.org/1999/xlink" x="0px" y="0px"
	 viewBox="0 0 70 70" style="enable-background:new 0 0 70 70;" xml:space="preserve">
<style type="text/css">
	.st0{fill:#FF8523;}
	.st1{fill:#FFFFFF;}
</style>
<g>
	<g>
		<g>
			<path class="st0" d="M55.56,47.13c-0.55,0-1.08-0.32-1.31-0.86l-7.6-17.53l-2.36,5.21c-0.33,0.72-1.17,1.04-1.89,0.71
				c-0.72-0.33-1.04-1.17-0.71-1.89l3.69-8.14c0.23-0.51,0.74-0.85,1.31-0.84c0.56,0,1.07,0.34,1.3,0.86l8.88,20.48
				c0.31,0.72-0.02,1.57-0.74,1.88C55.94,47.09,55.75,47.13,55.56,47.13z"/>
		</g>
		<g>
			<path class="st0" d="M37.63,47.21c-0.22,0-0.45-0.05-0.67-0.17c-0.7-0.37-0.97-1.23-0.6-1.93l3.97-7.52
				c0.25-0.47,0.73-0.76,1.26-0.76l4.08-0.01c0,0,0,0,0,0c0.79,0,1.43,0.64,1.43,1.43c0,0.79-0.64,1.43-1.43,1.43l-3.22,0.01
				l-3.57,6.76C38.64,46.93,38.14,47.21,37.63,47.21z"/>
		</g>
	</g>
	<g>
		<g>
			<path class="st1" d="M30.24,42.61c-0.79,0-1.43-0.64-1.43-1.43V37.3h-3.88c-0.79,0-1.43-0.64-1.43-1.43
				c0-0.79,0.64-1.43,1.43-1.43h5.3c0.79,0,1.43,0.64,1.43,1.43v5.3C31.67,41.97,31.03,42.61,30.24,42.61z"/>
		</g>
		<g>
			<path class="st1" d="M19.83,46.38c-0.23,0-0.46-0.05-0.67-0.17c-2.91-1.55-5.03-4.14-5.99-7.29c-0.96-3.15-0.63-6.49,0.92-9.39
				c1.55-2.91,4.14-5.04,7.29-5.99c3.15-0.96,6.49-0.63,9.39,0.92c0.7,0.37,0.96,1.24,0.59,1.93c-0.37,0.7-1.24,0.96-1.93,0.59
				c-2.23-1.19-4.8-1.44-7.22-0.71c-2.42,0.74-4.41,2.37-5.6,4.61c-1.19,2.23-1.44,4.8-0.71,7.22c0.74,2.42,2.37,4.41,4.61,5.6
				c0.7,0.37,0.96,1.24,0.59,1.93C20.84,46.1,20.34,46.38,19.83,46.38z"/>
		</g>
	</g>
	<g>
		<path class="st0" d="M34.82,70.18c-9.38,0-18.2-3.65-24.84-10.27c-0.56-0.56-0.56-1.46,0-2.02c0.56-0.56,1.46-0.56,2.02,0
			c6.1,6.09,14.21,9.44,22.82,9.44c17.82,0,32.32-14.5,32.32-32.32c0-8.62-3.35-16.72-9.44-22.82c-0.56-0.56-0.56-1.46,0-2.02
			c0.56-0.56,1.46-0.56,2.02,0C66.35,16.8,70,25.62,70,35C70,54.4,54.22,70.18,34.82,70.18z"/>
	</g>
</g>
</svg>
